<?xml version="1.0" encoding="UTF-8"?>
<svg id="Camada_2" data-name="Camada 2" xmlns="http://www.w3.org/2000/svg" viewBox="0 0 589.83 800">
  <defs>
    <style>
      .cls-1 {
        fill: #555;
      }
    </style>
  </defs>
  <g id="Camada_1-2" data-name="Camada 1">
    <g>
      <path class="cls-1" d="M278.28,429.57s-44.6-85.93-42.95-148.73c1.2-44.87,102.38-89.23,142.1-153.64,39.65-64.44-4.94-127.2-4.94-127.2,0,0,9.92,46.28-16.51,94.14-26.44,47.93-124.01,76.05-161.95,158.65-37.94,82.61,84.25,176.78,84.25,176.78Z"/>
      <path class="cls-1" d="M445.21,168.5s-151.99,57.85-151.99,123.91,41.27,87.58,47.93,109.04c6.59,21.53-11.57,57.85-11.57,57.85,0,0,59.46-41.3,49.51-89.23-9.92-47.93-56.17-62.83-29.7-110.69,17.68-32.1,95.82-90.88,95.82-90.88Z"/>
      <path class="cls-1" d="M261.8,516.88c140.45-5.01,191.68-49.34,191.68-49.34-90.84,24.75-332.1,23.14-333.78,4.98-1.61-18.16,74.33-33.06,74.33-33.06,0,0-118.93,0-128.85,29.73-9.92,29.73,56.27,52.6,196.62,47.69Z"/>
      <path class="cls-1" d="M465.01,586.5s137.47-29.32,123.87-103.99c-16.48-90.91-112.34-39.69-112.34-39.69,0,0,67.81,0,74.36,41.27,6.63,41.3-85.9,102.41-85.9,102.41Z"/>
      <path class="cls-1" d="M397.28,546.88s-34.64,9.1-85.97,14.87c-68.8,7.72-151.99,1.61-158.62-9.96-6.52-11.57,11.57-18.16,11.57-18.16-82.64,19.84-37.42,54.49,59.43,61.15,83.02,5.66,206.58-24.79,206.58-24.79l-32.99-23.11Z"/>
      <path class="cls-1" d="M184.17,619.05s-37.49,1.06-39.69,20.91c-2.16,19.71,23.07,37.42,115.63,42.92,92.53,5.49,157.55-25.3,157.55-25.3l-41.85-25.41s-26.47,5.56-67.22,11.06c-40.79,5.53-124.42-4.43-127.72-12.09-3.36-7.73,3.3-12.09,3.3-12.09Z"/>
      <path class="cls-1" d="M544.29,708.28c14.32-15.45-4.43-27.57-4.43-27.57,0,0,6.59,7.72-2.13,16.51-8.82,8.79-89.26,30.8-218.15,37.42-128.85,6.63-268.75-12.12-273.18-28.63-4.29-16.51,71.65-29.7,71.65-29.7-8.79,1.1-114.53,3.3-117.9,31.96-3.3,28.6,46.25,51.74,244.58,51.74,198.24-.03,285.3-36.39,299.55-51.74Z"/>
      <path class="cls-1" d="M467.21,773.24c-87.03,17.58-351.33,6.49-351.33,6.49,0,0,171.77,40.79,367.84,6.66,93.73-16.34,99.19-61.7,99.19-61.7,0,0-28.67,30.86-115.7,48.55Z"/>
    </g>
  </g>
</svg>