<?xml version="1.0" encoding="UTF-8"?>
<svg id="Camada_2" data-name="Camada 2" xmlns="http://www.w3.org/2000/svg" viewBox="0 0 800.29 800.29">
  <defs>
    <style>
      .cls-1 {
        fill: #b3b3b3;
        fill-rule: evenodd;
      }
    </style>
  </defs>
  <g id="Camada_1-2" data-name="Camada 1">
    <path class="cls-1" d="M700.25,0c55.25,0,100.04,44.79,100.04,100.04v600.22c0,55.25-44.79,100.04-100.04,100.04H100.04c-55.25,0-100.04-44.79-100.04-100.04V100.04C0,44.79,44.79,0,100.04,0h600.22ZM452.81,379.94v156.41l-.35,87.63c0,16.61-3.1,29.14-9.3,37.61-6.2,8.47-15.47,12.85-27.81,13.15-11.4,0-20.21-3.9-26.41-11.7-6.17-7.8-9.25-19.21-9.25-34.21v-8.75h-61.07v9.25c0,22.17,4.22,40.73,12.65,55.67,8.5,15.01,20.22,26.24,35.16,33.71,14.67,7.5,31.61,11.25,50.82,11.25,29.34,0,52.79-8.3,70.33-24.91,17.57-16.61,26.36-41.36,26.36-74.28l.35-87.63v-163.21h-61.47ZM643.28,374.53c-19.51,0-36.28,4.07-50.32,12.2-13.53,8.03-24.53,19.71-31.71,33.71-7.79,15.43-11.66,32.54-11.25,49.82,0,25.11,4.89,44.82,14.66,59.12,10.1,14.01,26.23,26.21,48.37,36.61l23.46,10.75c14.61,6.2,25.03,13.37,31.26,21.51,6.17,8.14,9.25,18.72,9.25,31.76,0,15.94-2.77,27.66-8.3,35.16-5.2,7.47-13.99,11.2-26.36,11.2-12.04.03-21.16-4.03-27.36-12.2-6.2-8.1-9.62-20.64-10.25-37.61h-58.12c.67,33.21,8.97,58.62,24.91,76.23,15.97,17.57,39.08,26.36,69.32,26.36s53.94-8.64,70.88-25.91c16.91-17.24,25.36-41.98,25.36-74.23,0-27.01-5.54-48.5-16.61-64.47s-28.49-29.14-52.27-39.51l-22.46-9.8c-13-5.54-22.27-11.89-27.81-19.06-5.54-7.14-8.3-16.74-8.3-28.81,0-13.34,2.75-23.28,8.25-29.81,5.9-6.5,14.37-9.75,25.41-9.75,12.04,0,20.51,3.9,25.41,11.7,5.2,7.8,8.14,19.52,8.8,35.16h56.17c-1-32.55-9.3-57.29-24.91-74.23-15.67-17.27-37.5-25.91-65.47-25.91"/>
  </g>
</svg>