<?xml version="1.0" encoding="UTF-8"?>
<svg id="Camada_2" data-name="Camada 2" xmlns="http://www.w3.org/2000/svg" viewBox="0 0 1334.6 800.76">
  <defs>
    <style>
      .cls-1 {
        fill: #555;
        fill-rule: evenodd;
      }
    </style>
  </defs>
  <g id="Camada_1-2" data-name="Camada 1">
    <path class="cls-1" d="M667.3,0c-177.95,0-289.16,88.97-333.65,266.92,66.73-88.97,144.58-122.34,233.55-100.09,50.76,12.68,87.05,49.53,127.21,90.28,65.42,66.41,141.15,143.27,306.54,143.27,177.95,0,289.16-88.97,333.65-266.92-66.73,88.97-144.58,122.34-233.55,100.09-50.76-12.68-87.05-49.53-127.21-90.28C908.42,76.86,832.69,0,667.3,0ZM333.65,400.38c-177.95,0-289.16,88.97-333.65,266.92,66.73-88.97,144.58-122.34,233.55-100.09,50.76,12.7,87.05,49.53,127.21,90.28,65.42,66.41,141.15,143.27,306.54,143.27,177.95,0,289.16-88.97,333.65-266.92-66.73,88.97-144.58,122.34-233.55,100.09-50.76-12.68-87.05-49.53-127.21-90.28-65.42-66.41-141.15-143.27-306.54-143.27Z"/>
  </g>
</svg>