<?xml version="1.0" encoding="UTF-8"?>
<svg id="Camada_2" data-name="Camada 2" xmlns="http://www.w3.org/2000/svg" viewBox="0 0 800 800">
  <defs>
    <style>
      .cls-1 {
        fill: #b3b3b3;
        fill-rule: evenodd;
      }
    </style>
  </defs>
  <g id="Camada_1-2" data-name="Camada 1">
    <path class="cls-1" d="M700,0c55.23,0,100,44.77,100,100v600c0,55.23-44.77,100-100,100H100c-55.23,0-100-44.77-100-100V100C0,44.77,44.77,0,100,0h600ZM643.05,374.4c-19.5,0-36.27,4.07-50.3,12.2-13.53,8.02-24.52,19.71-31.7,33.7-7.79,15.42-11.65,32.53-11.25,49.8,0,25.1,4.88,44.8,14.65,59.1,10.1,14,26.22,26.2,48.35,36.6l23.45,10.75c14.6,6.2,25.02,13.37,31.25,21.5,6.17,8.13,9.25,18.72,9.25,31.75,0,15.93-2.77,27.65-8.3,35.15-5.2,7.47-13.98,11.2-26.35,11.2-12.03.03-21.15-4.03-27.35-12.2-6.2-8.1-9.62-20.63-10.25-37.6h-58.1c.67,33.2,8.97,58.6,24.9,76.2,15.97,17.57,39.07,26.35,69.3,26.35s53.92-8.63,70.85-25.9c16.9-17.23,25.35-41.97,25.35-74.2,0-27-5.53-48.48-16.6-64.45-11.07-15.97-28.48-29.13-52.25-39.5l-22.45-9.8c-13-5.53-22.27-11.88-27.8-19.05-5.53-7.13-8.3-16.73-8.3-28.8,0-13.33,2.75-23.27,8.25-29.8,5.9-6.5,14.37-9.75,25.4-9.75,12.03,0,20.5,3.9,25.4,11.7,5.2,7.8,8.13,19.52,8.8,35.15h56.15c-1-32.53-9.3-57.27-24.9-74.2-15.67-17.27-37.48-25.9-65.45-25.9M350,379.8v55.65h65v289.55h61.05v-289.55h64.45v-55.65h-190.5Z"/>
  </g>
</svg>